<!DOCTYPE svg PUBLIC "-//W3C//DTD SVG 1.1//EN" "http://www.w3.org/Graphics/SVG/1.1/DTD/svg11.dtd">
<!-- Uploaded to: SVG Repo, www.svgrepo.com, Transformed by: SVG Repo Mixer Tools -->
<svg fill="#000000" height="800px" width="800px" version="1.1" id="Capa_1" xmlns="http://www.w3.org/2000/svg" xmlns:xlink="http://www.w3.org/1999/xlink" viewBox="0 0 482.14 482.14" xml:space="preserve">
<g id="SVGRepo_bgCarrier" stroke-width="0"/>
<g id="SVGRepo_tracerCarrier" stroke-linecap="round" stroke-linejoin="round"/>
<g id="SVGRepo_iconCarrier"> <g> <path d="M377.598,207.169c-7.519,0-13.634,6.115-13.634,13.632v3.704c0,11.939-6.186,22.459-15.508,28.526h29.148v-45.862H377.598z "/> <path d="M326.305,450.698H62.084c-10.953,0-19.875-8.905-19.875-19.874V51.315c0-10.953,8.921-19.858,19.875-19.858l181.89-0.188 v67.217c0,19.653,15.933,35.604,35.587,35.604l65.862-0.189l0.032,11.916c9.874-4.248,20.724-6.645,32.143-6.645h0.006v-17.722 L255.731,0H62.084C33.793,0,10.769,23.026,10.769,51.315v379.509c0,28.289,23.024,51.316,51.315,51.316h264.221 c26.375,0,47.928-20.11,50.741-45.76h-32.001C342.602,444.59,335.289,450.698,326.305,450.698z"/> <path d="M446.959,269.17h-3.869v-48.369c0-36.114-29.385-65.491-65.492-65.491c-36.108,0-65.492,29.377-65.492,65.491v3.704 c0,9.867,7.998,17.865,17.863,17.865c9.858,0,17.856-7.998,17.856-17.865v-3.704c0-16.412,13.358-29.77,29.772-29.77 c16.413,0,29.771,13.358,29.771,29.77v48.369h-99.133c-13.482,0-24.405,10.931-24.405,24.413v102.246 c0,13.482,10.922,24.413,24.405,24.413h138.723c13.483,0,24.412-10.931,24.412-24.413V293.583 C471.371,280.101,460.442,269.17,446.959,269.17z M390.993,346.688v17.739c0,7.399-5.996,13.395-13.395,13.395 c-7.4,0-13.397-5.995-13.397-13.395v-17.739c-5.838-4.184-9.676-10.992-9.676-18.723c0-12.743,10.33-23.082,23.08-23.082 c12.735,0,23.065,10.339,23.065,23.082C400.67,335.695,396.834,342.504,390.993,346.688z"/> </g> </g>
</svg>